<svg width="1000" height="182" viewBox="0 0 1000 182" fill="none" xmlns="http://www.w3.org/2000/svg">
<rect width="1000" height="182" fill="white"/>
<g clip-path="url(#clip0_1_7)">
<path fill-rule="evenodd" clip-rule="evenodd" d="M436.995 98.1429C437.445 98.1426 437.884 98.284 438.249 98.5471C438.614 98.8103 438.887 99.1817 439.029 99.6086L440.155 102.989C440.584 104.266 441.584 105.271 442.864 105.697L446.244 106.826C446.669 106.969 447.039 107.241 447.301 107.606C447.563 107.971 447.705 108.408 447.705 108.857C447.705 109.306 447.563 109.744 447.301 110.108C447.039 110.473 446.669 110.746 446.244 110.889L442.864 112.017C441.587 112.446 440.581 113.446 440.155 114.726L439.027 118.106C438.884 118.531 438.611 118.901 438.246 119.163C437.882 119.425 437.444 119.567 436.995 119.567C436.546 119.567 436.109 119.425 435.744 119.163C435.379 118.901 435.107 118.531 434.964 118.106L433.835 114.726C433.625 114.095 433.27 113.522 432.8 113.052C432.33 112.582 431.757 112.228 431.127 112.017L427.747 110.889C427.321 110.746 426.951 110.473 426.689 110.108C426.427 109.744 426.286 109.306 426.286 108.857C426.286 108.408 426.427 107.971 426.689 107.606C426.951 107.241 427.321 106.969 427.747 106.826L431.127 105.697C432.404 105.269 433.409 104.269 433.835 102.989L434.964 99.6086C435.106 99.182 435.378 98.8111 435.743 98.548C436.107 98.2849 436.546 98.1431 436.995 98.1429Z" fill="#FFCA0F"/>
<path fill-rule="evenodd" clip-rule="evenodd" d="M439.148 61C439.626 60.9997 440.09 61.1593 440.467 61.4534C440.844 61.7475 441.112 62.1591 441.228 62.6229L441.965 65.5829C442.639 68.2686 444.736 70.3657 447.422 71.04L450.382 71.7771C450.847 71.8922 451.259 72.1596 451.554 72.5366C451.849 72.9135 452.01 73.3785 452.01 73.8571C452.01 74.3358 451.849 74.8007 451.554 75.1777C451.259 75.5547 450.847 75.8221 450.382 75.9371L447.422 76.6743C444.736 77.3486 442.639 79.4457 441.965 82.1314L441.228 85.0914C441.113 85.5561 440.845 85.9688 440.468 86.2638C440.091 86.5588 439.626 86.7191 439.148 86.7191C438.669 86.7191 438.204 86.5588 437.827 86.2638C437.45 85.9688 437.183 85.5561 437.068 85.0914L436.331 82.1314C436.001 80.8127 435.319 79.6083 434.358 78.6471C433.397 77.6859 432.192 77.004 430.873 76.6743L427.913 75.9371C427.449 75.8221 427.036 75.5547 426.741 75.1777C426.446 74.8007 426.286 74.3358 426.286 73.8571C426.286 73.3785 426.446 72.9135 426.741 72.5366C427.036 72.1596 427.449 71.8922 427.913 71.7771L430.873 71.04C432.192 70.7103 433.397 70.0284 434.358 69.0672C435.319 68.106 436.001 66.9016 436.331 65.5829L437.068 62.6229C437.184 62.1591 437.451 61.7475 437.828 61.4534C438.205 61.1593 438.67 60.9997 439.148 61Z" fill="#4D78E6"/>
<path fill-rule="evenodd" clip-rule="evenodd" d="M413.427 69.5714C413.893 69.5715 414.346 69.7233 414.717 70.0037C415.089 70.2841 415.359 70.678 415.487 71.1257L417.81 79.2571C418.31 81.0083 419.248 82.6031 420.536 83.8909C421.824 85.1787 423.419 86.117 425.17 86.6171L433.301 88.94C433.749 89.0682 434.142 89.3385 434.422 89.7103C434.703 90.0817 434.854 90.5346 434.854 91C434.854 91.4654 434.703 91.9183 434.422 92.2897C434.142 92.6614 433.749 92.9317 433.301 93.06L425.17 95.3829C423.419 95.8829 421.824 96.8211 420.536 98.1091C419.248 99.3969 418.31 100.992 417.81 102.743L415.487 110.874C415.359 111.322 415.089 111.715 414.717 111.995C414.345 112.275 413.892 112.427 413.427 112.427C412.962 112.427 412.509 112.275 412.137 111.995C411.766 111.715 411.495 111.322 411.367 110.874L409.044 102.743C408.544 100.992 407.606 99.3969 406.318 98.1091C405.03 96.8211 403.435 95.8829 401.684 95.3829L393.553 93.06C393.105 92.9317 392.712 92.6614 392.432 92.2897C392.152 91.9183 392 91.4654 392 91C392 90.5346 392.152 90.0817 392.432 89.7103C392.712 89.3385 393.105 89.0682 393.553 88.94L401.684 86.6171C403.435 86.117 405.03 85.1787 406.318 83.8909C407.606 82.6031 408.544 81.0083 409.044 79.2571L411.367 71.1257C411.495 70.678 411.765 70.2841 412.137 70.0037C412.509 69.7233 412.961 69.5715 413.427 69.5714Z" fill="#E90FAC"/>
</g>
<path d="M484.598 108.798C481.826 108.798 479.446 108.308 477.458 107.328C475.47 106.348 473.846 105.074 472.586 103.506C471.354 101.938 470.444 100.23 469.856 98.382C469.268 96.534 468.974 94.756 468.974 93.048V92.124C468.974 90.22 469.268 88.344 469.856 86.496C470.472 84.648 471.41 82.968 472.67 81.456C473.93 79.944 475.526 78.74 477.458 77.844C479.418 76.92 481.728 76.458 484.388 76.458C487.16 76.458 489.568 76.962 491.612 77.97C493.684 78.95 495.336 80.35 496.568 82.17C497.8 83.962 498.542 86.062 498.794 88.47H492.788C492.564 87.07 492.06 85.894 491.276 84.942C490.52 83.962 489.554 83.234 488.378 82.758C487.202 82.254 485.872 82.002 484.388 82.002C482.876 82.002 481.532 82.268 480.356 82.8C479.18 83.304 478.2 84.032 477.416 84.984C476.632 85.936 476.03 87.056 475.61 88.344C475.218 89.632 475.022 91.06 475.022 92.628C475.022 94.14 475.218 95.54 475.61 96.828C476.03 98.116 476.646 99.25 477.458 100.23C478.27 101.182 479.264 101.924 480.44 102.456C481.644 102.988 483.03 103.254 484.598 103.254C486.894 103.254 488.826 102.694 490.394 101.574C491.99 100.426 492.956 98.83 493.292 96.786H499.298C499.018 98.97 498.276 100.972 497.072 102.792C495.868 104.612 494.216 106.068 492.116 107.16C490.016 108.252 487.51 108.798 484.598 108.798ZM504.163 108V77.34H510.001V108H504.163ZM501.307 81.708V77.34H510.001V81.708H501.307ZM530.484 108V101.238H529.518V93.72C529.518 92.404 529.196 91.424 528.552 90.78C527.908 90.136 526.914 89.814 525.57 89.814C524.87 89.814 524.03 89.828 523.05 89.856C522.07 89.884 521.076 89.926 520.068 89.982C519.088 90.01 518.206 90.052 517.422 90.108V85.152C518.066 85.096 518.794 85.04 519.606 84.984C520.418 84.928 521.244 84.9 522.084 84.9C522.952 84.872 523.764 84.858 524.52 84.858C526.872 84.858 528.818 85.166 530.358 85.782C531.926 86.398 533.102 87.364 533.886 88.68C534.698 89.996 535.104 91.718 535.104 93.846V108H530.484ZM523.134 108.588C521.482 108.588 520.026 108.294 518.766 107.706C517.534 107.118 516.568 106.278 515.868 105.186C515.196 104.094 514.86 102.778 514.86 101.238C514.86 99.558 515.266 98.186 516.078 97.122C516.918 96.058 518.08 95.26 519.564 94.728C521.076 94.196 522.84 93.93 524.856 93.93H530.148V97.416H524.772C523.428 97.416 522.392 97.752 521.664 98.424C520.964 99.068 520.614 99.908 520.614 100.944C520.614 101.98 520.964 102.82 521.664 103.464C522.392 104.108 523.428 104.43 524.772 104.43C525.584 104.43 526.326 104.29 526.998 104.01C527.698 103.702 528.272 103.198 528.72 102.498C529.196 101.77 529.462 100.79 529.518 99.558L530.946 101.196C530.806 102.792 530.414 104.136 529.77 105.228C529.154 106.32 528.286 107.16 527.166 107.748C526.074 108.308 524.73 108.588 523.134 108.588ZM549.631 108.714C546.495 108.714 544.031 108.056 542.239 106.74C540.475 105.396 539.551 103.548 539.467 101.196H544.717C544.801 101.98 545.235 102.694 546.019 103.338C546.803 103.982 548.035 104.304 549.715 104.304C551.115 104.304 552.221 104.052 553.033 103.548C553.873 103.044 554.293 102.358 554.293 101.49C554.293 100.734 553.971 100.132 553.327 99.684C552.711 99.236 551.647 98.942 550.135 98.802L548.119 98.592C545.571 98.312 543.611 97.584 542.239 96.408C540.867 95.232 540.181 93.664 540.181 91.704C540.181 90.136 540.573 88.82 541.357 87.756C542.141 86.692 543.219 85.894 544.591 85.362C545.991 84.802 547.587 84.522 549.379 84.522C552.179 84.522 554.447 85.138 556.183 86.37C557.919 87.602 558.829 89.408 558.913 91.788H553.663C553.607 91.004 553.215 90.332 552.487 89.772C551.759 89.212 550.709 88.932 549.337 88.932C548.105 88.932 547.153 89.17 546.481 89.646C545.809 90.122 545.473 90.738 545.473 91.494C545.473 92.222 545.739 92.782 546.271 93.174C546.831 93.566 547.727 93.832 548.959 93.972L550.975 94.182C553.663 94.462 555.763 95.204 557.275 96.408C558.815 97.612 559.585 99.236 559.585 101.28C559.585 102.792 559.165 104.108 558.325 105.228C557.513 106.32 556.365 107.174 554.881 107.79C553.397 108.406 551.647 108.714 549.631 108.714ZM572.682 108.714C569.546 108.714 567.082 108.056 565.29 106.74C563.526 105.396 562.602 103.548 562.518 101.196H567.768C567.852 101.98 568.286 102.694 569.07 103.338C569.854 103.982 571.086 104.304 572.766 104.304C574.166 104.304 575.272 104.052 576.084 103.548C576.924 103.044 577.344 102.358 577.344 101.49C577.344 100.734 577.022 100.132 576.378 99.684C575.762 99.236 574.698 98.942 573.186 98.802L571.17 98.592C568.622 98.312 566.662 97.584 565.29 96.408C563.918 95.232 563.232 93.664 563.232 91.704C563.232 90.136 563.624 88.82 564.408 87.756C565.192 86.692 566.27 85.894 567.642 85.362C569.042 84.802 570.638 84.522 572.43 84.522C575.23 84.522 577.498 85.138 579.234 86.37C580.97 87.602 581.88 89.408 581.964 91.788H576.714C576.658 91.004 576.266 90.332 575.538 89.772C574.81 89.212 573.76 88.932 572.388 88.932C571.156 88.932 570.204 89.17 569.532 89.646C568.86 90.122 568.524 90.738 568.524 91.494C568.524 92.222 568.79 92.782 569.322 93.174C569.882 93.566 570.778 93.832 572.01 93.972L574.026 94.182C576.714 94.462 578.814 95.204 580.326 96.408C581.866 97.612 582.636 99.236 582.636 101.28C582.636 102.792 582.216 104.108 581.376 105.228C580.564 106.32 579.416 107.174 577.932 107.79C576.448 108.406 574.698 108.714 572.682 108.714ZM586.582 116.988V111.99H590.866C591.678 111.99 592.35 111.878 592.882 111.654C593.442 111.458 593.904 111.122 594.268 110.646C594.632 110.198 594.912 109.568 595.108 108.756L601.24 85.194H606.826L600.064 110.016C599.616 111.724 598.986 113.082 598.174 114.09C597.362 115.126 596.312 115.868 595.024 116.316C593.764 116.764 592.196 116.988 590.32 116.988H586.582ZM593.68 107.496V102.876H598.552V107.496H593.68ZM591.706 107.496L584.314 85.194H590.194L597.208 107.496H591.706Z" fill="black"/>
<defs>
<clipPath id="clip0_1_7">
<rect width="60" height="60" fill="white" transform="translate(392 61)"/>
</clipPath>
</defs>
</svg>
